<mxfile host="app.diagrams.net" modified="2024-05-08T07:12:36.551Z" agent="Mozilla/5.0 (Windows NT 10.0; Win64; x64) AppleWebKit/537.36 (KHTML, like Gecko) Chrome/124.0.0.0 Safari/537.36" etag="VFQDfCQ4NY_4-S5LoKON" version="24.3.1" type="github">
  <diagram name="第 1 页" id="Xoe8LgTOkllsNJdpbbUE">
    <mxGraphModel dx="2074" dy="1132" grid="1" gridSize="10" guides="1" tooltips="1" connect="1" arrows="1" fold="1" page="1" pageScale="1" pageWidth="850" pageHeight="1100" math="0" shadow="0">
      <root>
        <mxCell id="0" />
        <mxCell id="1" parent="0" />
        <mxCell id="NFVRFFtjCyHkv4U6AnSr-6" value="&lt;font style=&quot;font-size: 22px;&quot;&gt;&lt;b&gt;接入区&lt;/b&gt;&lt;/font&gt;" style="rounded=0;whiteSpace=wrap;html=1;dashed=1;verticalAlign=bottom;" vertex="1" parent="1">
          <mxGeometry x="45" y="400" width="730" height="280" as="geometry" />
        </mxCell>
        <mxCell id="NFVRFFtjCyHkv4U6AnSr-2" value="接入区网关集群" style="rounded=0;whiteSpace=wrap;html=1;" vertex="1" parent="1">
          <mxGeometry x="140" y="520" width="120" height="60" as="geometry" />
        </mxCell>
        <mxCell id="NFVRFFtjCyHkv4U6AnSr-3" value="接入区网关集群" style="rounded=0;whiteSpace=wrap;html=1;" vertex="1" parent="1">
          <mxGeometry x="355" y="520" width="120" height="60" as="geometry" />
        </mxCell>
        <mxCell id="NFVRFFtjCyHkv4U6AnSr-4" value="" style="endArrow=none;dashed=1;html=1;dashPattern=1 3;strokeWidth=2;rounded=0;" edge="1" parent="1">
          <mxGeometry width="50" height="50" relative="1" as="geometry">
            <mxPoint x="270" y="550" as="sourcePoint" />
            <mxPoint x="350" y="550" as="targetPoint" />
          </mxGeometry>
        </mxCell>
        <mxCell id="NFVRFFtjCyHkv4U6AnSr-5" value="商密SSL网关" style="rounded=0;whiteSpace=wrap;html=1;" vertex="1" parent="1">
          <mxGeometry x="555" y="520" width="120" height="60" as="geometry" />
        </mxCell>
        <mxCell id="NFVRFFtjCyHkv4U6AnSr-7" value="互联网" style="ellipse;shape=cloud;whiteSpace=wrap;html=1;" vertex="1" parent="1">
          <mxGeometry x="344" y="70" width="120" height="80" as="geometry" />
        </mxCell>
        <mxCell id="NFVRFFtjCyHkv4U6AnSr-8" value="互联网交换机" style="rounded=0;whiteSpace=wrap;html=1;" vertex="1" parent="1">
          <mxGeometry x="350" y="180" width="120" height="60" as="geometry" />
        </mxCell>
        <mxCell id="NFVRFFtjCyHkv4U6AnSr-9" value="互联网防火墙" style="rounded=0;whiteSpace=wrap;html=1;" vertex="1" parent="1">
          <mxGeometry x="350" y="290" width="120" height="60" as="geometry" />
        </mxCell>
        <mxCell id="NFVRFFtjCyHkv4U6AnSr-10" value="" style="endArrow=none;html=1;rounded=0;entryX=0.55;entryY=0.95;entryDx=0;entryDy=0;entryPerimeter=0;" edge="1" parent="1" source="NFVRFFtjCyHkv4U6AnSr-8" target="NFVRFFtjCyHkv4U6AnSr-7">
          <mxGeometry width="50" height="50" relative="1" as="geometry">
            <mxPoint x="280" y="600" as="sourcePoint" />
            <mxPoint x="330" y="550" as="targetPoint" />
          </mxGeometry>
        </mxCell>
        <mxCell id="NFVRFFtjCyHkv4U6AnSr-11" value="" style="endArrow=none;html=1;rounded=0;entryX=0.5;entryY=0;entryDx=0;entryDy=0;exitX=0.5;exitY=1;exitDx=0;exitDy=0;" edge="1" parent="1" source="NFVRFFtjCyHkv4U6AnSr-8" target="NFVRFFtjCyHkv4U6AnSr-9">
          <mxGeometry width="50" height="50" relative="1" as="geometry">
            <mxPoint x="420" y="190" as="sourcePoint" />
            <mxPoint x="420" y="156" as="targetPoint" />
          </mxGeometry>
        </mxCell>
        <mxCell id="NFVRFFtjCyHkv4U6AnSr-12" value="" style="endArrow=none;html=1;rounded=0;entryX=0.5;entryY=1;entryDx=0;entryDy=0;exitX=0.5;exitY=0;exitDx=0;exitDy=0;" edge="1" parent="1" source="NFVRFFtjCyHkv4U6AnSr-6" target="NFVRFFtjCyHkv4U6AnSr-9">
          <mxGeometry width="50" height="50" relative="1" as="geometry">
            <mxPoint x="420" y="250" as="sourcePoint" />
            <mxPoint x="420" y="300" as="targetPoint" />
          </mxGeometry>
        </mxCell>
        <mxCell id="NFVRFFtjCyHkv4U6AnSr-13" value="&lt;font style=&quot;font-size: 22px;&quot;&gt;&lt;b&gt;APP区&lt;/b&gt;&lt;/font&gt;" style="rounded=0;whiteSpace=wrap;html=1;dashed=1;verticalAlign=bottom;" vertex="1" parent="1">
          <mxGeometry x="40" y="750" width="740" height="280" as="geometry" />
        </mxCell>
        <mxCell id="NFVRFFtjCyHkv4U6AnSr-14" value="APP集群" style="rounded=0;whiteSpace=wrap;html=1;" vertex="1" parent="1">
          <mxGeometry x="220.5" y="840" width="120" height="60" as="geometry" />
        </mxCell>
        <mxCell id="NFVRFFtjCyHkv4U6AnSr-15" value="APP集群" style="rounded=0;whiteSpace=wrap;html=1;" vertex="1" parent="1">
          <mxGeometry x="460.5" y="840" width="120" height="60" as="geometry" />
        </mxCell>
        <mxCell id="NFVRFFtjCyHkv4U6AnSr-16" value="" style="endArrow=none;dashed=1;html=1;dashPattern=1 3;strokeWidth=2;rounded=0;" edge="1" parent="1">
          <mxGeometry width="50" height="50" relative="1" as="geometry">
            <mxPoint x="360.5" y="869.5" as="sourcePoint" />
            <mxPoint x="440.5" y="869.5" as="targetPoint" />
          </mxGeometry>
        </mxCell>
        <mxCell id="NFVRFFtjCyHkv4U6AnSr-17" value="" style="endArrow=none;html=1;rounded=0;entryX=0.5;entryY=1;entryDx=0;entryDy=0;exitX=0.5;exitY=0;exitDx=0;exitDy=0;" edge="1" parent="1" source="NFVRFFtjCyHkv4U6AnSr-13" target="NFVRFFtjCyHkv4U6AnSr-6">
          <mxGeometry width="50" height="50" relative="1" as="geometry">
            <mxPoint x="420" y="410" as="sourcePoint" />
            <mxPoint x="420" y="360" as="targetPoint" />
          </mxGeometry>
        </mxCell>
      </root>
    </mxGraphModel>
  </diagram>
</mxfile>
